<svg width="937" height="152" xmlns="http://www.w3.org/2000/svg" preserveAspectRatio="xMidYMid meet" version="1.0">

 <g>
  <title>Layer 1</title>
  <g id="svg_1" fill="#000000" transform="translate(0 152) scale(0.1 -0.1)">
   <path fill="#ffffff" id="svg_2" d="m3630,1513c-353,-34 -540,-82 -936,-238c-392,-155 -626,-301 -951,-594l-103,-92l0,178c0,149 3,191 20,252c39,141 138,308 190,323c14,3 43,10 65,15c69,14 110,104 63,137c-33,23 -58,20 -145,-19c-197,-90 -314,-191 -736,-637c-175,-185 -264,-263 -432,-377c-115,-79 -371,-218 -525,-287c-123,-55 -142,-69 -138,-103c6,-48 38,-52 157,-21c265,70 493,182 701,343c171,132 208,172 532,573c116,142 228,261 228,240c0,-3 -11,-34 -25,-68c-46,-117 -55,-175 -61,-373c-8,-266 -11,-275 -126,-373c-170,-144 -203,-173 -260,-238c-47,-53 -58,-72 -58,-100c0,-27 5,-37 26,-46c22,-10 33,-8 78,15c85,45 213,154 295,251c143,170 426,444 551,532c244,171 440,277 720,387c196,78 306,108 500,141c223,38 364,49 538,43c215,-7 327,-39 480,-139c132,-86 149,-201 50,-340c-19,-27 -23,-28 -107,-28l-88,0l-214,-242c-229,-260 -273,-309 -266,-293c7,16 167,521 167,528c0,10 -249,8 -268,-2c-9,-5 -118,-124 -242,-264c-124,-141 -226,-255 -227,-253c-1,1 39,110 91,242c51,131 96,249 100,262l8,23l-544,-3l-543,-3l-47,-23c-26,-13 -64,-41 -86,-62c-50,-51 -377,-557 -393,-608c-16,-54 -5,-89 34,-112c30,-19 52,-20 398,-20l366,0l20,23c37,40 133,201 133,222c0,3 -137,5 -305,5c-168,0 -305,3 -305,6c0,3 5,14 10,25c10,18 24,19 279,19c242,0 271,2 289,17c21,19 142,210 142,225c0,4 -119,8 -265,8c-231,0 -264,2 -259,15c5,13 54,15 354,15l347,0l-83,-222c-93,-247 -100,-288 -60,-335c23,-27 28,-28 130,-31c170,-6 248,33 385,192c41,47 76,84 78,82c3,-2 -5,-34 -16,-71c-44,-142 -18,-196 100,-208c139,-15 237,25 351,140c128,130 607,665 643,718c75,108 99,254 58,345c-43,96 -211,205 -386,250c-116,29 -350,46 -477,33zm-1673,-44c23,-23 -16,-79 -53,-79c-13,0 -42,-7 -64,-16c-49,-20 -113,-103 -164,-216c-55,-118 -66,-176 -66,-354c0,-88 -5,-190 -10,-228c-6,-38 -9,-71 -6,-73c2,-2 55,44 117,103c285,267 541,443 829,569c180,79 496,194 618,226c344,89 752,104 971,37c95,-29 239,-106 282,-151c99,-102 89,-264 -25,-412c-52,-66 -584,-655 -645,-714c-73,-69 -131,-94 -233,-99c-176,-9 -186,17 -102,271c20,60 34,110 31,113c-2,3 -62,-60 -131,-140c-185,-212 -223,-237 -381,-244c-93,-4 -102,-2 -129,19c-25,20 -28,27 -23,63c3,23 44,142 91,266c48,124 86,230 86,237c0,10 -79,13 -370,13c-412,0 -387,4 -425,-69l-15,-31l270,-2l269,-3l-59,-93l-59,-92l-275,0l-274,0l-31,-48c-17,-27 -31,-54 -31,-60c0,-9 85,-12 310,-14l311,-3l-58,-85l-58,-85l-362,0l-362,0l-23,23c-22,22 -22,24 -7,65c15,42 343,553 380,593c11,12 43,34 72,50l52,29l513,3c315,2 512,-1 512,-7c0,-5 -50,-136 -110,-292c-102,-261 -118,-317 -81,-295c6,4 128,139 271,301l261,295l104,0c58,0 105,-1 105,-2c0,-2 -43,-133 -94,-293c-53,-162 -90,-294 -85,-299c5,-5 15,-3 25,5c10,8 132,143 272,302l254,287l88,0l88,0l28,37c34,45 73,139 74,177c1,145 -175,282 -444,343c-205,47 -723,-2 -1031,-98c-329,-102 -656,-266 -944,-472c-123,-89 -399,-353 -508,-487c-78,-97 -174,-187 -268,-250c-74,-50 -115,-63 -115,-36c0,29 113,146 259,270c187,158 180,142 191,446c6,195 10,222 34,293c31,93 57,146 100,207c47,67 52,75 35,65c-145,-86 -234,-174 -468,-464c-206,-256 -277,-330 -421,-442c-184,-144 -362,-238 -592,-314c-220,-72 -307,-63 -131,15c141,61 422,212 533,286c162,107 302,227 452,386c411,438 510,526 701,623c114,58 126,62 144,44z"></path>
   <path fill="#ffffff" id="svg_3" d="m4684,1455c-14,-57 90,-160 231,-229c128,-63 190,-79 338,-85l127,-6l-55,-43c-44,-35 -98,-59 -253,-117c-273,-100 -355,-135 -522,-222c-322,-166 -503,-318 -559,-468c-52,-138 -4,-238 126,-265c137,-29 324,31 489,156c138,103 219,182 534,515l298,316l179,51c346,100 488,130 816,172c236,30 415,41 682,41c419,0 631,-32 810,-124c115,-59 128,-56 -282,-57c-412,0 -370,7 -389,-60c-5,-20 0,-20 208,-21c117,-1 307,-5 423,-8l209,-6l7,-35c4,-19 5,-47 2,-62c-5,-28 -6,-28 -83,-28c-67,0 -79,-3 -97,-22c-11,-13 -76,-116 -144,-230c-68,-114 -127,-208 -130,-208c-3,0 -39,93 -80,207c-41,114 -84,218 -95,232c-32,37 -131,42 -199,10c-85,-40 -130,-98 -329,-427c-104,-172 -191,-311 -192,-309c-2,1 40,137 92,302c51,165 94,317 94,337c0,28 -8,47 -29,70l-29,33l-199,0l-199,0l-58,-35c-68,-41 -138,-110 -364,-357l-167,-183l-332,0c-183,0 -333,3 -333,6c0,3 5,14 10,25c10,18 24,19 285,19l274,0l19,28c25,35 132,211 132,217c0,3 -122,5 -271,5c-240,0 -270,2 -259,15c11,13 59,15 319,15c230,0 311,3 324,13c9,6 46,62 82,122l66,110l-387,3c-335,2 -395,0 -437,-14c-86,-29 -140,-93 -319,-379c-89,-143 -168,-279 -176,-302c-19,-56 -6,-93 39,-115c31,-16 78,-18 532,-18l499,0l32,32c17,18 54,59 83,91l52,57l185,0c102,0 186,-4 186,-8c0,-5 -11,-42 -25,-82c-14,-40 -25,-77 -25,-82c0,-4 117,-8 259,-8l260,0l24,32c14,18 80,124 148,236c92,153 125,199 130,185c3,-10 39,-108 79,-218c39,-110 80,-209 91,-220c13,-14 36,-20 82,-23c53,-3 73,0 118,22c30,14 70,42 91,63c35,37 371,579 432,697c25,48 31,72 31,124l0,65l155,-7c85,-3 247,-6 360,-6c113,0 211,-4 218,-9c11,-7 9,-19 -12,-60l-26,-51l-279,0l-278,0l-61,-31c-73,-36 -106,-74 -196,-224c-94,-156 -102,-200 -46,-250c21,-19 38,-20 316,-23c162,-2 294,-5 294,-8c0,-3 -5,-14 -10,-25c-10,-18 -25,-19 -369,-19c-327,0 -361,-2 -380,-17c-12,-10 -46,-58 -75,-108c-42,-69 -52,-94 -45,-107c9,-17 39,-18 433,-18c475,0 480,1 559,71c74,64 227,321 227,380c0,18 -11,41 -29,61l-29,33l-296,3c-253,2 -294,5 -289,17c4,13 59,15 362,15c297,0 360,2 378,15c18,13 143,211 143,228c0,4 -45,7 -100,7c-55,0 -100,2 -100,5c0,3 11,23 25,45c36,57 68,70 187,74c102,3 103,4 115,32c18,43 16,54 -12,54c-59,0 -177,23 -182,36c-3,8 15,65 40,126l45,113l-26,6c-54,13 -59,10 -90,-54c-48,-96 -101,-172 -136,-193c-29,-18 -59,-19 -422,-22l-391,-3l-74,73c-115,115 -244,166 -522,210c-122,19 -181,22 -422,23c-161,0 -331,-6 -400,-13c-346,-38 -777,-121 -1089,-212c-38,-11 -72,-18 -74,-16c-6,7 39,33 108,61c112,47 220,130 220,171c0,8 -9,23 -21,35c-16,16 -27,19 -52,14c-51,-11 -166,-70 -234,-119c-60,-44 -68,-47 -161,-58c-83,-9 -116,-9 -216,6c-206,29 -336,81 -445,177c-54,48 -97,53 -107,14zm107,-56c35,-28 89,-64 119,-79c159,-80 416,-119 594,-90c45,7 76,21 132,60c83,58 189,110 222,110c64,0 -21,-82 -148,-141c-47,-22 -95,-45 -106,-52c-30,-17 -138,-117 -132,-122c2,-3 58,11 124,31c494,145 996,230 1474,249c226,9 520,-19 705,-67c154,-39 299,-126 340,-202l20,-36l408,0c322,0 414,3 440,14c45,18 98,82 147,177c23,44 46,79 52,79c6,0 7,-7 3,-17c-5,-10 -23,-58 -42,-106c-31,-82 -33,-91 -19,-112c11,-17 31,-26 79,-34c35,-6 76,-11 90,-11c15,0 27,-4 27,-9c0,-5 -46,-10 -103,-13c-130,-4 -156,-18 -215,-114l-43,-69l105,-5l104,-5l-52,-87l-51,-88l-360,0c-198,0 -365,-4 -370,-8c-6,-4 -22,-26 -37,-49l-27,-41l27,-7c15,-4 149,-6 297,-5c326,3 310,4 329,-16c35,-35 20,-82 -81,-249c-63,-103 -111,-158 -168,-188c-39,-21 -51,-22 -464,-25l-423,-3l23,38c12,21 38,62 56,90l33,53l358,0c272,0 362,3 374,12c8,7 28,34 43,60l27,48l-307,0c-347,0 -364,3 -365,69c0,51 155,301 214,346c65,49 106,55 401,55l272,0l27,59c31,70 32,82 6,106c-17,16 -54,18 -407,23l-389,5l4,-74c3,-68 1,-79 -30,-139c-64,-121 -388,-644 -420,-677c-67,-70 -184,-104 -234,-68c-15,10 -49,91 -110,260c-49,134 -91,245 -94,245c-3,0 -72,-110 -153,-245c-82,-134 -155,-249 -162,-255c-8,-6 -48,-10 -100,-8l-86,3l201,330c111,182 216,345 233,363c68,71 188,104 236,65c15,-12 51,-97 107,-253c47,-129 89,-238 92,-242c4,-4 75,104 157,240c82,136 154,250 159,254c6,4 46,8 89,8c74,0 78,1 87,26c13,33 13,78 -1,124c-11,36 -14,38 -63,44c-28,3 -190,6 -361,7c-170,0 -332,4 -360,9c-29,4 117,8 349,9l399,1l-24,26c-68,75 -226,146 -406,184c-259,54 -808,49 -1260,-10c-320,-42 -423,-64 -785,-167l-198,-56l-297,-315c-386,-409 -533,-539 -688,-613c-183,-86 -375,-78 -420,18c-31,64 2,172 82,270c76,94 273,228 510,347c160,80 250,117 496,207c187,68 189,69 287,151c55,45 98,83 97,84c-2,2 -58,-1 -125,-6c-192,-15 -298,5 -455,87c-92,47 -231,183 -188,183c5,0 37,-23 72,-51zm1359,-565c0,-4 -23,-44 -51,-90l-52,-84l-313,0l-314,0l-35,-47c-19,-27 -35,-51 -35,-55c0,-4 121,-9 270,-10l269,-3l-53,-85l-53,-85l-276,-3l-275,-2l-31,-50c-17,-28 -31,-55 -31,-60c0,-6 133,-10 368,-10l367,0l215,236c317,347 327,353 556,354c83,0 165,-5 182,-11c42,-14 57,-53 42,-110c-11,-41 -137,-449 -181,-587l-21,-62l-104,0c-57,0 -104,1 -104,3c0,2 13,42 29,89c16,48 27,89 23,92c-3,3 -98,6 -211,6l-206,0l-90,-95l-90,-95l-485,0c-533,0 -533,0 -538,57c-4,40 3,54 156,298c187,299 208,330 251,360c77,53 89,54 469,55c193,0 352,-3 352,-6z"></path>
   <path fill="#ffffff" id="svg_4" d="m5175,948c-105,-37 -498,-199 -590,-244c-205,-99 -422,-251 -488,-341c-68,-93 -87,-204 -43,-248c72,-72 251,-28 426,104c81,62 760,741 740,740c-8,0 -28,-5 -45,-11zm-370,-369c-165,-165 -327,-320 -361,-344c-78,-57 -203,-116 -257,-122c-48,-6 -114,17 -124,42c-10,27 16,119 47,168c57,90 259,236 475,342c119,59 487,214 510,215c5,0 -125,-135 -290,-301z"></path>
   <path fill="#ffffff" id="svg_5" d="m6448,628c-76,-81 -158,-176 -158,-182c0,-4 73,-5 162,-4l161,3l33,99c19,54 31,103 28,107c-3,5 -48,9 -101,9c-94,0 -95,0 -125,-32zm165,-83l-25,-75l-114,0c-63,0 -114,3 -114,6c0,3 28,37 62,75l62,69l77,0l78,0l-26,-75z"></path>
  </g>
 </g>
</svg>